# xmcd
#
# Track frame offsets: 
#        150
#        10970
#        16822
#        33127
#        39965
#        48352
#        56355
#        70435
#        78802
#        89067
#        102897
#        112727
#        131520
#        135407
#        141990
#        155442
#        167257
#        175255
#        186572
#        195080
#        210197
#
# Disc length: 3260 seconds
#
# Revision: 0
# Processed by: cddbd v1.5.2PL0 Copyright (c) Steve Scherf et al.
# Submitted via: ExactAudioCopy v1.0b6
#
DISCID=020cba15
DTITLE=United States Air Force Singing Sergeants - O'er The Land Of Th
DTITLE=e Free: An American Choral Landscape (1991)
DYEAR=1991
DGENRE=Patriotic
TTITLE0=America The Beautiful
TTITLE1=Songs Of Innocence: 3. Infant Joy
TTITLE2=Songs Of Innocence: 4. The Lamb
TTITLE3=Songs Of Innocence: 5. Laughing Song
TTITLE4=Americana: 3. God's Bottles
TTITLE5=The Winged Joy: 7. You Say There Is No Love
TTITLE6=Musicians Wrestle Everywhere
TTITLE7=The Hour Glass: 2. Have You Seen The White Lily Grow?
TTITLE8=The Hour Glass: 6. The Hour Glass
TTITLE9=Three Celtic Invocations: 1. Morning Prayer
TTITLE10=Three Celtic Invocations: 2. The Lightener of the Stars
TTITLE11=Three Celtic Invocations: 3. God Be With Us
TTITLE12=Trilogy of Valor: 1. Stouthearted Men
TTITLE13=Trilogy of Valor: 2. Bring Me Men
TTITLE14=Trilogy of Valor: 3. Farewell To Nova Scotia
TTITLE15=New Day
TTITLE16=Poor Man Lazrus
TTITLE17=Two Psalms and a Proverb: 1. Behold, How Good and How Pleasan
TTITLE17=t It Is
TTITLE18=Two Psalms and a Proverb: 2. Wounds Without Cause
TTITLE19=Two Psalms and a Proverb: 3. How Long Wilt Thou Forget Me, O 
TTITLE19=Lord?
TTITLE20=A Jubilant Song
EXTD=
EXTT0=
EXTT1=
EXTT2=
EXTT3=
EXTT4=
EXTT5=
EXTT6=
EXTT7=
EXTT8=
EXTT9=
EXTT10=
EXTT11=
EXTT12=
EXTT13=
EXTT14=
EXTT15=
EXTT16=
EXTT17=
EXTT18=
EXTT19=
EXTT20=
PLAYORDER=
